<?xml version="1.0" standalone="no"?>
<!DOCTYPE svg PUBLIC "-//W3C//DTD SVG 20010904//EN"
 "http://www.w3.org/TR/2001/REC-SVG-20010904/DTD/svg10.dtd">
<svg version="1.0" xmlns="http://www.w3.org/2000/svg"
 width="16.000000pt" height="16.000000pt" viewBox="0 0 16.000000 16.000000"
 preserveAspectRatio="xMidYMid meet">
<metadata>
Created by potrace 1.11, written by Peter Selinger 2001-2013
</metadata>
<g transform="translate(0.000000,16.000000) scale(0.004848,-0.004848)"
fill="#000000" stroke="none">
<path d="M1450 2614 c-353 -75 -630 -336 -732 -690 -20 -69 -23 -102 -23 -249
0 -147 3 -180 23 -249 28 -96 77 -204 126 -277 l36 -54 -55 -55 -55 -55 102
-102 103 -103 56 56 57 56 68 -41 c87 -53 197 -95 303 -116 115 -24 334 -16
440 14 330 96 577 345 673 677 20 69 23 102 23 249 0 148 -3 180 -23 250 -23
78 -79 204 -124 277 l-23 38 52 52 53 53 -102 102 -103 103 -52 -52 c-50 -50
-55 -52 -76 -38 -135 86 -233 128 -359 154 -95 20 -297 20 -388 0z m338 -260
c42 -9 115 -33 162 -55 l84 -40 -229 -232 c-634 -640 -720 -727 -727 -727 -16
0 -88 170 -102 242 -20 98 -20 179 0 276 76 371 442 612 812 536z m487 -386
c157 -342 12 -744 -328 -907 -189 -91 -396 -93 -587 -5 l-74 35 219 222 c607
613 720 727 728 727 5 0 23 -33 42 -72z"/>
<path d="M384 2534 c-90 -15 -137 -37 -174 -82 -55 -67 -71 -139 -75 -347 -2
-82 -6 -159 -9 -170 -2 -11 -5 -25 -5 -32 -2 -23 -62 -82 -91 -88 l-30 -7 0
-164 c0 -112 3 -164 11 -164 34 0 80 -35 101 -78 20 -43 23 -63 25 -217 2
-226 18 -291 84 -356 61 -59 141 -80 318 -82 l116 -2 0 150 0 150 -54 7 c-66
8 -103 34 -113 79 -4 19 -9 95 -12 169 -8 171 -24 231 -79 285 -23 22 -51 45
-61 51 -18 9 -16 12 20 34 47 29 60 43 84 95 26 55 30 80 36 240 8 194 33 235
144 235 l38 0 -1 156 -1 155 -100 -2 c-56 -2 -133 -8 -172 -15z"/>
<path d="M2620 2396 l0 -156 43 0 c110 -1 131 -44 138 -285 3 -88 23 -178 51
-223 11 -18 40 -46 64 -61 l44 -27 -39 -23 c-92 -51 -115 -124 -125 -392 -4
-117 -20 -154 -74 -168 -20 -6 -52 -11 -70 -11 l-33 0 3 -152 3 -153 108 2
c172 2 222 12 290 57 33 22 55 46 73 81 34 71 36 82 40 255 4 190 8 230 28
269 20 38 52 60 99 68 l37 6 0 163 0 164 -26 0 c-39 0 -90 35 -109 77 -19 39
-22 78 -29 293 -4 153 -23 221 -76 278 -60 63 -117 79 -307 89 l-133 6 0 -157z"/>
</g>
</svg>
